<svg width="696" height="665" viewBox="0 0 696 665" fill="none" xmlns="http://www.w3.org/2000/svg">
<path fill-rule="evenodd" clip-rule="evenodd" d="M384.374 633.066C381.381 633.066 378.525 632.461 376.392 631.23L53.1162 444.587C48.4024 441.866 48.9954 437.114 54.4368 433.974L83.8253 417.006L376.052 585.722C378.172 586.946 381.007 587.546 383.978 587.546C387.566 587.546 391.35 586.671 394.305 584.965L572.464 482.106L603.572 500.066C608.286 502.785 607.695 507.537 602.254 510.68L394.773 630.467C391.798 632.186 387.986 633.066 384.374 633.066Z" fill="url(#paint0_radial_119_2)"/>
<path fill-rule="evenodd" clip-rule="evenodd" d="M383.796 664.926C380.018 664.926 376.392 664.142 373.623 662.541H373.626L4.67338 449.528C1.6611 447.788 0 445.279 0 442.466C0 439.229 2.25145 436.074 6.17763 433.806L59.1598 402.766L63.3093 405.163L8.27451 437.407C5.69611 438.895 4.16767 440.785 4.16767 442.464C4.16767 444.084 5.57556 445.239 6.75515 445.922L375.707 658.933H375.709C377.813 660.151 380.703 660.745 383.751 660.745C387.527 660.745 391.543 659.833 394.603 658.065L646.103 510.715C648.682 509.227 650.211 507.34 650.211 505.659C650.211 504.039 648.805 502.886 647.624 502.203L592.641 470.457L596.804 468.054L649.705 498.597C652.72 500.334 654.379 502.843 654.379 505.659C654.379 508.893 652.127 512.047 648.198 514.314L396.7 661.665C392.96 663.824 388.27 664.926 383.796 664.926Z" fill="url(#paint1_linear_119_2)"/>
<path fill-rule="evenodd" clip-rule="evenodd" d="M611.677 447.526C614.099 446.638 616.1 444.514 617.051 441.418L689.871 204.987C691.675 199.125 689.032 192.001 683.969 189.075L361.967 3.16914C360.498 2.32328 358.99 1.92038 357.539 1.92038C356.725 1.92038 355.928 2.04775 355.169 2.29417L360.849 0.315216L360.879 0.306145H360.881C361.57 0.105075 362.291 0 363.027 0C364.475 0 365.984 0.402901 367.452 1.25103L689.457 187.157C694.518 190.08 697.161 197.203 695.357 203.065L622.539 439.498C621.612 442.508 619.692 444.595 617.357 445.521L617.373 445.526L611.677 447.526Z" fill="url(#paint2_radial_119_2)"/>
<path fill-rule="evenodd" clip-rule="evenodd" d="M383.978 587.546C381.007 587.546 378.172 586.946 376.052 585.722L83.8253 417.006L63.3093 405.163L59.1597 402.766L55.0567 400.397C53.2414 399.348 52.2277 397.991 51.9726 396.548L51.9635 396.552L50.0432 386.968C50.361 388.331 51.366 389.602 53.0827 390.603C53.0846 390.603 53.0845 390.603 53.0845 390.603C53.0963 390.61 53.1049 390.616 53.1163 390.621L376.392 577.263C378.525 578.497 381.383 579.101 384.376 579.101C387.946 579.101 391.706 578.242 394.665 576.565C394.701 576.545 394.737 576.525 394.773 576.502L602.254 456.715C602.267 456.706 602.281 456.697 602.294 456.69C604.83 455.217 606.303 453.393 606.666 451.591L604.698 460.947L604.687 460.931C604.324 462.731 602.865 464.555 600.322 466.021L596.804 468.054L592.64 470.457L572.464 482.106L394.305 584.965C391.35 586.671 387.566 587.546 383.978 587.546Z" fill="url(#paint3_radial_119_2)"/>
<path fill-rule="evenodd" clip-rule="evenodd" d="M384.376 579.101C381.383 579.101 378.525 578.497 376.392 577.263C378.525 578.497 381.383 579.101 384.376 579.101ZM384.374 576.583C381.381 576.583 378.526 575.98 376.392 574.748L53.1163 388.102C51.51 387.175 50.5689 386.007 50.175 384.752C49.5552 386.909 50.4593 389.074 53.0826 390.603C51.366 389.602 50.3595 388.331 50.0431 386.968C49.4981 384.618 50.9997 381.99 54.4368 380.007L261.916 260.221C264.891 258.503 268.702 257.62 272.315 257.62C275.308 257.62 278.166 258.224 280.301 259.458L281.886 260.373C282.123 260.537 282.367 260.691 282.615 260.835L604.253 446.53C606.249 447.927 607.037 449.747 606.665 451.591C606.303 453.393 604.83 455.217 602.294 456.69C605.852 454.62 607.269 451.869 606.513 449.454C606.028 451.139 604.636 452.821 602.254 454.196L394.773 573.984C391.797 575.702 387.986 576.583 384.374 576.583ZM281.742 498.07C283.875 499.301 286.665 499.906 289.576 499.906C293.032 499.906 296.659 499.055 299.55 497.386L343.156 472.21C346.125 470.497 347.829 468.135 347.828 465.735C347.826 463.664 346.589 461.811 344.344 460.515L259.637 411.609C257.507 410.378 254.715 409.776 251.803 409.776C248.347 409.776 244.719 410.625 241.827 412.296L198.226 437.472C195.258 439.186 193.553 441.546 193.554 443.947C193.556 446.018 194.789 447.871 197.035 449.167L281.742 498.07ZM425.166 485.687C425.166 485.951 425.325 486.202 425.65 486.39L437.808 493.409C438.133 493.596 438.569 493.688 439.026 493.688C439.576 493.688 440.156 493.555 440.61 493.293L445.879 490.251C446.333 489.989 446.566 489.653 446.566 489.335C446.566 489.071 446.407 488.821 446.081 488.632L433.927 481.613C433.601 481.425 433.166 481.333 432.709 481.333C432.159 481.333 431.576 481.466 431.122 481.729L425.853 484.773C425.399 485.036 425.166 485.371 425.166 485.687ZM408.171 475.876C408.172 476.138 408.332 476.392 408.657 476.579L420.813 483.596C421.14 483.785 421.574 483.878 422.031 483.878C422.581 483.878 423.163 483.743 423.615 483.482L428.886 480.438C429.34 480.176 429.571 479.84 429.571 479.523C429.571 479.261 429.411 479.01 429.086 478.822L416.931 471.803C416.605 471.615 416.168 471.523 415.714 471.523C415.163 471.523 414.582 471.658 414.129 471.919L408.858 474.961C408.404 475.223 408.17 475.558 408.171 475.876ZM421.486 461.977C421.485 462.297 421.682 462.602 422.079 462.831L454.224 481.392C454.619 481.62 455.153 481.732 455.707 481.732C456.379 481.732 457.089 481.569 457.641 481.25L468.454 475.006C469.009 474.685 469.293 474.276 469.294 473.889C469.294 473.569 469.099 473.26 468.703 473.031L436.557 454.474C436.16 454.245 435.63 454.132 435.073 454.132C434.401 454.132 433.691 454.297 433.139 454.615L422.326 460.858C421.772 461.177 421.488 461.587 421.486 461.977ZM417.48 470.502C417.48 470.764 417.64 471.015 417.966 471.203L430.121 478.224C430.446 478.412 430.883 478.504 431.34 478.504C431.89 478.504 432.469 478.368 432.924 478.106L438.195 475.064C438.648 474.803 438.88 474.466 438.88 474.148C438.88 473.887 438.721 473.633 438.397 473.445L426.238 466.428C425.912 466.24 425.477 466.146 425.021 466.146C424.47 466.146 423.888 466.281 423.436 466.543L418.167 469.587C417.713 469.849 417.48 470.185 417.48 470.502ZM391.317 466.144C391.317 466.409 391.478 466.659 391.803 466.847L403.958 473.866C404.284 474.054 404.72 474.146 405.176 474.146C405.727 474.146 406.307 474.012 406.761 473.75L412.03 470.708C412.484 470.446 412.717 470.111 412.717 469.793C412.717 469.528 412.557 469.279 412.231 469.09L400.077 462.071C399.751 461.882 399.314 461.791 398.857 461.791C398.307 461.791 397.727 461.926 397.275 462.187L392.004 465.229C391.55 465.491 391.317 465.826 391.317 466.144ZM446.421 457.426C446.421 457.746 446.615 458.055 447.012 458.284L470.827 472.033C471.223 472.262 471.753 472.373 472.311 472.373C472.982 472.373 473.691 472.21 474.245 471.89L485.058 465.645C485.613 465.325 485.895 464.918 485.895 464.528C485.895 464.208 485.701 463.901 485.304 463.671L461.491 449.924C461.094 449.695 460.562 449.581 460.007 449.581C459.333 449.581 458.625 449.746 458.073 450.065L447.258 456.309C446.703 456.63 446.421 457.037 446.421 457.426ZM375.313 456.811C375.312 457.133 375.505 457.44 375.904 457.67L386.82 463.971C387.216 464.2 387.747 464.311 388.301 464.311C388.975 464.311 389.685 464.147 390.238 463.828L403.119 456.39C403.672 456.071 403.955 455.663 403.957 455.273C403.957 454.953 403.763 454.646 403.365 454.416L392.449 448.115C392.053 447.886 391.523 447.775 390.967 447.775C390.294 447.775 389.584 447.937 389.032 448.256L376.15 455.696C375.598 456.015 375.315 456.423 375.313 456.811ZM475.726 455.401C475.726 455.721 475.923 456.029 476.32 456.258L487.233 462.559C487.63 462.788 488.162 462.899 488.717 462.899C489.389 462.899 490.099 462.736 490.651 462.418L501.465 456.175C502.02 455.854 502.301 455.446 502.301 455.056C502.301 454.736 502.109 454.43 501.713 454.201L490.797 447.898C490.399 447.668 489.868 447.555 489.31 447.555C488.639 447.555 487.932 447.721 487.377 448.041L476.564 454.284C476.011 454.602 475.726 455.011 475.726 455.401ZM404.52 452.18C404.52 452.502 404.715 452.809 405.111 453.037L416.027 459.34C416.423 459.569 416.954 459.68 417.512 459.68C418.183 459.68 418.892 459.517 419.447 459.197L430.26 452.954C430.814 452.634 431.098 452.225 431.098 451.838C431.098 451.515 430.902 451.21 430.505 450.98L419.591 444.68C419.194 444.45 418.662 444.337 418.106 444.337C417.435 444.337 416.726 444.5 416.173 444.82L405.36 451.063C404.806 451.383 404.522 451.792 404.52 452.18ZM429.356 447.573C429.356 447.894 429.55 448.202 429.947 448.431L440.861 454.731C441.26 454.962 441.79 455.074 442.347 455.074C443.019 455.074 443.726 454.911 444.281 454.591L455.096 448.346C455.649 448.027 455.931 447.618 455.931 447.231C455.931 446.909 455.736 446.603 455.34 446.374L444.426 440.07C444.03 439.842 443.497 439.731 442.943 439.731C442.271 439.731 441.562 439.895 441.009 440.214L430.193 446.457C429.638 446.777 429.356 447.186 429.356 447.573ZM352.532 443.659C352.532 443.981 352.724 444.288 353.123 444.518L370.58 454.595C370.975 454.823 371.509 454.935 372.063 454.935C372.735 454.935 373.444 454.77 373.997 454.451L386.88 447.016C387.434 446.697 387.718 446.287 387.718 445.897C387.718 445.577 387.523 445.27 387.124 445.04L369.67 434.963C369.274 434.735 368.744 434.623 368.186 434.623C367.515 434.623 366.805 434.784 366.251 435.104L353.369 442.544C352.817 442.863 352.532 443.271 352.532 443.659ZM482.949 440.624C482.949 440.946 483.142 441.251 483.54 441.481L503.64 453.086C504.038 453.316 504.569 453.429 505.126 453.429C505.798 453.429 506.505 453.263 507.058 452.943L517.871 446.701C518.424 446.381 518.71 445.973 518.71 445.584C518.71 445.264 518.516 444.955 518.119 444.726L498.017 433.123C497.621 432.894 497.091 432.78 496.536 432.78C495.862 432.78 495.153 432.944 494.599 433.264L483.786 439.506C483.233 439.825 482.951 440.236 482.949 440.624ZM458.872 445.669C458.872 445.991 459.068 446.296 459.466 446.526L470.379 452.827C470.776 453.056 471.306 453.169 471.861 453.169C472.533 453.169 473.242 453.006 473.797 452.686L484.611 446.443C485.164 446.124 485.447 445.714 485.447 445.327C485.447 445.004 485.253 444.697 484.858 444.469L473.943 438.169C473.543 437.938 473.013 437.826 472.456 437.826C471.785 437.826 471.076 437.99 470.523 438.309L459.71 444.552C459.156 444.871 458.872 445.282 458.872 445.669ZM387.666 442.45C387.666 442.77 387.86 443.078 388.257 443.307L399.171 449.608C399.569 449.837 400.1 449.948 400.657 449.948C401.329 449.948 402.038 449.785 402.593 449.464L413.406 443.222C413.959 442.903 414.243 442.492 414.241 442.105C414.241 441.786 414.046 441.478 413.651 441.25L402.737 434.947C402.34 434.718 401.808 434.604 401.252 434.604C400.578 434.604 399.873 434.77 399.318 435.09L388.505 441.333C387.952 441.653 387.666 442.061 387.666 442.45ZM412.5 437.842C412.5 438.164 412.695 438.469 413.093 438.699L424.007 444.999C424.404 445.228 424.936 445.342 425.49 445.342C426.162 445.342 426.871 445.177 427.424 444.858L438.24 438.616C438.795 438.295 439.077 437.886 439.077 437.499C439.077 437.177 438.882 436.87 438.486 436.642L427.572 430.341C427.174 430.111 426.643 429.998 426.088 429.998C425.415 429.998 424.707 430.161 424.152 430.482L413.337 436.724C412.783 437.044 412.5 437.454 412.5 437.842ZM442.018 435.937C442.018 436.259 442.213 436.566 442.609 436.794L453.522 443.097C453.92 443.327 454.451 443.439 455.009 443.439C455.681 443.439 456.389 443.274 456.943 442.953L467.757 436.711C468.308 436.393 468.593 435.984 468.593 435.594C468.593 435.274 468.399 434.966 468.003 434.737L457.087 428.436C456.69 428.207 456.159 428.096 455.602 428.096C454.931 428.096 454.221 428.258 453.669 428.577L442.855 434.822C442.303 435.141 442.018 435.549 442.018 435.937ZM288.808 407.383L347.287 441.147C347.76 441.419 348.378 441.555 348.994 441.555C349.611 441.555 350.229 441.419 350.699 441.147L363.835 433.562C364.307 433.29 364.543 432.935 364.543 432.579C364.543 432.221 364.307 431.867 363.835 431.595L305.334 397.819C305.318 397.808 305.3 397.799 305.284 397.79L290.559 389.289L287.947 387.78L287.828 387.713C287.432 387.482 286.899 387.371 286.342 387.371C285.67 387.371 284.962 387.533 284.41 387.852L271.526 395.29C270.974 395.609 270.69 396.019 270.69 396.406C270.69 396.729 270.885 397.034 271.283 397.264L288.735 407.343C288.76 407.356 288.783 407.369 288.808 407.383ZM370.812 432.718C370.812 433.04 371.007 433.347 371.403 433.576L382.317 439.876C382.714 440.106 383.246 440.219 383.801 440.219C384.475 440.219 385.184 440.054 385.737 439.735L396.55 433.492C397.104 433.172 397.387 432.763 397.387 432.376C397.387 432.053 397.192 431.747 396.796 431.518L385.883 425.218C385.484 424.987 384.953 424.875 384.396 424.875C383.724 424.875 383.016 425.038 382.462 425.359L371.649 431.601C371.095 431.921 370.812 432.331 370.812 432.718ZM466.852 431.33C466.852 431.652 467.046 431.961 467.443 432.19L478.357 438.488C478.756 438.718 479.288 438.831 479.845 438.831C480.516 438.831 481.224 438.668 481.777 438.349L492.59 432.105C493.145 431.785 493.427 431.375 493.427 430.988C493.427 430.668 493.232 430.359 492.836 430.13L481.922 423.827C481.526 423.598 480.993 423.487 480.438 423.487C479.767 423.487 479.056 423.651 478.502 423.971L467.689 430.216C467.136 430.536 466.852 430.943 466.852 431.33ZM497.424 429.067C497.424 429.39 497.619 429.696 498.015 429.925L508.929 436.225C509.328 436.456 509.858 436.567 510.413 436.567C511.084 436.567 511.794 436.405 512.349 436.084L515.922 434.021C516.477 433.7 516.761 433.293 516.761 432.904C516.761 432.584 516.566 432.275 516.17 432.046L505.254 425.746C504.858 425.518 504.327 425.405 503.769 425.405C503.098 425.405 502.388 425.567 501.834 425.887L498.262 427.95C497.707 428.271 497.424 428.68 497.424 429.067ZM395.645 428.112C395.645 428.432 395.841 428.737 396.239 428.967L407.152 435.27C407.549 435.499 408.079 435.612 408.636 435.612C409.308 435.612 410.017 435.445 410.57 435.126L421.386 428.884C421.938 428.565 422.223 428.157 422.223 427.767C422.223 427.447 422.028 427.139 421.63 426.91L410.716 420.609C410.32 420.38 409.789 420.269 409.232 420.269C408.56 420.269 407.85 420.432 407.298 420.75L396.483 426.993C395.928 427.313 395.645 427.723 395.645 428.112ZM425.163 426.207C425.163 426.529 425.358 426.835 425.755 427.064L436.668 433.365C437.067 433.595 437.597 433.708 438.153 433.708C438.826 433.708 439.534 433.543 440.087 433.224L450.9 426.979C451.454 426.659 451.738 426.252 451.739 425.865C451.74 425.542 451.544 425.236 451.148 425.007L440.232 418.704C439.836 418.476 439.303 418.364 438.748 418.364C438.076 418.364 437.368 418.528 436.815 418.848L425.999 425.09C425.445 425.409 425.163 425.82 425.163 426.207ZM353.958 422.986C353.957 423.309 354.151 423.614 354.549 423.843L365.462 430.146C365.859 430.374 366.39 430.486 366.947 430.486C367.62 430.486 368.329 430.322 368.882 430.003L379.696 423.76C380.249 423.44 380.533 423.03 380.533 422.643C380.533 422.321 380.338 422.017 379.94 421.787L369.026 415.485C368.629 415.256 368.099 415.143 367.542 415.143C366.87 415.143 366.161 415.307 365.608 415.626L354.795 421.869C354.241 422.189 353.959 422.598 353.958 422.986ZM449.998 421.601C449.998 421.921 450.19 422.228 450.588 422.458L461.503 428.756C461.899 428.985 462.431 429.101 462.988 429.101C463.662 429.101 464.37 428.937 464.922 428.618L475.735 422.373C476.29 422.052 476.572 421.646 476.572 421.258C476.572 420.935 476.379 420.628 475.982 420.399L465.068 414.098C464.67 413.868 464.139 413.755 463.584 413.755C462.91 413.755 462.201 413.919 461.648 414.239L450.835 420.484C450.282 420.803 449.998 421.211 449.998 421.601ZM480.723 419.425C480.723 419.747 480.917 420.054 481.313 420.282L492.227 426.585C492.625 426.814 493.156 426.926 493.713 426.926C494.384 426.926 495.092 426.762 495.647 426.442L499.221 424.381C499.777 424.06 500.059 423.649 500.059 423.262C500.059 422.941 499.864 422.635 499.468 422.406L488.554 416.103C488.157 415.874 487.625 415.761 487.068 415.761C486.396 415.761 485.689 415.926 485.134 416.247L481.559 418.31C481.007 418.629 480.723 419.038 480.723 419.425ZM378.791 418.38C378.791 418.7 378.985 419.008 379.382 419.237L390.296 425.537C390.695 425.768 391.225 425.88 391.782 425.88C392.454 425.88 393.161 425.717 393.716 425.396L404.531 419.152C405.084 418.833 405.369 418.424 405.369 418.037C405.369 417.715 405.174 417.41 404.776 417.18L393.861 410.877C393.465 410.649 392.935 410.536 392.378 410.536C391.706 410.536 390.997 410.701 390.444 411.02L379.629 417.262C379.073 417.583 378.791 417.992 378.791 418.38ZM408.308 416.474C408.308 416.797 408.503 417.103 408.901 417.332L419.814 423.633C420.212 423.862 420.743 423.975 421.299 423.975C421.97 423.975 422.679 423.811 423.232 423.492L434.046 417.249C434.601 416.929 434.883 416.52 434.883 416.133C434.883 415.81 434.69 415.504 434.294 415.276L423.378 408.974C422.979 408.744 422.449 408.632 421.892 408.632C421.22 408.632 420.513 408.795 419.958 409.115L409.145 415.358C408.591 415.677 408.308 416.087 408.308 416.474ZM337.102 413.257C337.101 413.576 337.295 413.884 337.692 414.114L348.606 420.414C349.005 420.644 349.535 420.757 350.09 420.757C350.764 420.757 351.474 420.593 352.028 420.273L362.841 414.031C363.395 413.712 363.679 413.301 363.679 412.914C363.679 412.592 363.483 412.286 363.086 412.057L352.172 405.753C351.776 405.525 351.245 405.413 350.69 405.413C350.016 405.413 349.307 405.577 348.754 405.897L337.94 412.139C337.387 412.459 337.103 412.867 337.102 413.257ZM433.144 411.868C433.142 412.191 433.337 412.496 433.734 412.726L444.648 419.026C445.045 419.255 445.577 419.369 446.134 419.369C446.806 419.369 447.516 419.205 448.068 418.886L458.881 412.64C459.433 412.321 459.718 411.913 459.718 411.526C459.718 411.204 459.524 410.897 459.125 410.667L448.211 404.366C447.816 404.137 447.284 404.026 446.728 404.026C446.056 404.026 445.346 404.19 444.794 404.509L433.98 410.754C433.428 411.072 433.145 411.481 433.144 411.868ZM464.02 409.782C464.02 410.104 464.215 410.412 464.614 410.642L475.525 416.94C475.924 417.171 476.456 417.283 477.013 417.283C477.685 417.283 478.396 417.121 478.947 416.802L482.52 414.735C483.074 414.415 483.357 414.008 483.357 413.619C483.357 413.299 483.163 412.991 482.766 412.762L471.852 406.461C471.453 406.23 470.923 406.118 470.368 406.118C469.695 406.118 468.987 406.282 468.434 406.602L464.86 408.666C464.306 408.985 464.022 409.395 464.02 409.782ZM361.937 408.648C361.937 408.97 362.132 409.277 362.528 409.505L373.442 415.806C373.84 416.036 374.371 416.148 374.928 416.148C375.6 416.148 376.306 415.983 376.86 415.664L387.676 409.422C388.23 409.101 388.512 408.695 388.512 408.305C388.512 407.985 388.318 407.677 387.922 407.448L377.007 401.147C376.611 400.918 376.078 400.805 375.523 400.805C374.852 400.805 374.143 400.968 373.588 401.289L362.774 407.531C362.219 407.851 361.937 408.261 361.937 408.648ZM391.454 406.745C391.454 407.065 391.649 407.371 392.046 407.6L402.96 413.903C403.356 414.132 403.887 414.246 404.445 414.246C405.116 414.246 405.824 414.079 406.378 413.76L417.191 407.517C417.744 407.198 418.027 406.79 418.029 406.4C418.029 406.08 417.835 405.773 417.438 405.543L406.522 399.242C406.125 399.013 405.595 398.902 405.038 398.902C404.366 398.902 403.656 399.065 403.104 399.383L392.29 405.626C391.737 405.945 391.454 406.358 391.454 406.745ZM320.247 403.524C320.247 403.847 320.442 404.152 320.838 404.381L331.752 410.683C332.149 410.912 332.681 411.024 333.238 411.024C333.91 411.024 334.618 410.861 335.172 410.541L345.987 404.298C346.541 403.979 346.823 403.569 346.823 403.182C346.823 402.859 346.628 402.554 346.231 402.325L335.318 396.024C334.919 395.793 334.389 395.681 333.833 395.681C333.16 395.681 332.453 395.845 331.9 396.164L321.084 402.407C320.531 402.727 320.247 403.137 320.247 403.524ZM416.287 402.137C416.287 402.459 416.481 402.767 416.878 402.996L427.792 409.297C428.189 409.526 428.72 409.637 429.278 409.637C429.95 409.637 430.66 409.476 431.214 409.156L442.027 402.911C442.58 402.592 442.865 402.181 442.864 401.794C442.863 401.474 442.667 401.165 442.271 400.937L431.357 394.634C430.961 394.405 430.43 394.293 429.873 394.293C429.202 394.293 428.492 394.458 427.94 394.777L417.126 401.022C416.572 401.342 416.287 401.749 416.287 402.137ZM447.321 400.14C447.321 400.462 447.516 400.767 447.914 400.997L458.827 407.3C459.224 407.529 459.755 407.64 460.312 407.64C460.983 407.64 461.692 407.476 462.245 407.157L465.82 405.093C466.372 404.775 466.657 404.366 466.657 403.976C466.657 403.657 466.463 403.348 466.066 403.119L455.15 396.819C454.754 396.59 454.224 396.478 453.666 396.478C452.995 396.478 452.285 396.642 451.732 396.961L448.157 399.023C447.604 399.342 447.321 399.753 447.321 400.14ZM345.081 398.918C345.081 399.238 345.276 399.546 345.674 399.775L356.587 406.075C356.984 406.305 357.516 406.418 358.074 406.418C358.746 406.418 359.452 406.254 360.006 405.935L370.821 399.69C371.373 399.372 371.658 398.963 371.658 398.576C371.658 398.253 371.465 397.945 371.068 397.716L360.153 391.415C359.756 391.185 359.224 391.075 358.669 391.075C357.996 391.075 357.287 391.237 356.734 391.556L345.918 397.801C345.365 398.12 345.081 398.53 345.081 398.918ZM374.599 397.013C374.599 397.335 374.793 397.641 375.19 397.87L386.104 404.171C386.503 404.401 387.033 404.514 387.59 404.514C388.262 404.514 388.969 404.35 389.524 404.03L400.337 397.788C400.89 397.468 401.174 397.058 401.174 396.671C401.174 396.348 400.98 396.043 400.583 395.814L389.667 389.51C389.272 389.282 388.741 389.17 388.183 389.17C387.511 389.17 386.802 389.334 386.249 389.654L375.436 395.896C374.881 396.217 374.599 396.626 374.599 397.013ZM303.393 393.795C303.393 394.115 303.586 394.42 303.984 394.65L314.898 400.952C315.294 401.181 315.827 401.295 316.384 401.295C317.055 401.295 317.764 401.129 318.317 400.809L329.131 394.567C329.683 394.249 329.968 393.839 329.968 393.45C329.968 393.13 329.774 392.821 329.377 392.592L318.464 386.291C318.066 386.062 317.535 385.951 316.977 385.951C316.306 385.951 315.597 386.113 315.043 386.433L304.23 392.675C303.676 392.996 303.393 393.405 303.393 393.795ZM399.433 392.407C399.433 392.727 399.627 393.035 400.024 393.264L410.938 399.567C411.333 399.796 411.866 399.907 412.423 399.907C413.095 399.907 413.805 399.743 414.357 399.424L425.171 393.179C425.725 392.858 426.007 392.452 426.007 392.065C426.007 391.742 425.813 391.434 425.417 391.205L414.503 384.904C414.105 384.674 413.574 384.564 413.019 384.564C412.347 384.564 411.637 384.726 411.086 385.045L400.27 391.29C399.717 391.609 399.433 392.019 399.433 392.407ZM328.227 389.186C328.227 389.508 328.421 389.816 328.82 390.046L339.731 396.344C340.13 396.574 340.662 396.686 341.22 396.686C341.891 396.686 342.599 396.524 343.152 396.205L353.967 389.96C354.52 389.64 354.804 389.23 354.804 388.843C354.804 388.524 354.609 388.216 354.211 387.986L343.297 381.683C342.901 381.455 342.37 381.343 341.813 381.343C341.141 381.343 340.432 381.507 339.879 381.826L329.064 388.071C328.512 388.39 328.227 388.799 328.227 389.186ZM357.745 387.283C357.745 387.604 357.939 387.911 358.336 388.14L369.25 394.439C369.648 394.67 370.179 394.784 370.736 394.784C371.408 394.784 372.116 394.62 372.668 394.3L383.481 388.055C384.035 387.735 384.32 387.328 384.32 386.939C384.32 386.618 384.126 386.311 383.729 386.082L372.813 379.781C372.415 379.55 371.884 379.438 371.329 379.438C370.657 379.438 369.948 379.602 369.395 379.921L358.58 386.164C358.027 386.483 357.744 386.894 357.745 387.283ZM246.373 382.368C246.373 382.688 246.568 382.997 246.964 383.225L264.418 393.302C264.816 393.532 265.347 393.645 265.904 393.645C266.576 393.645 267.283 393.48 267.836 393.161L280.719 385.723C281.275 385.403 281.556 384.994 281.556 384.607C281.556 384.284 281.362 383.978 280.965 383.749L263.511 373.67C263.116 373.441 262.583 373.33 262.027 373.33C261.356 373.33 260.646 373.493 260.092 373.813L247.21 381.251C246.655 381.571 246.373 381.978 246.373 382.368ZM286.539 384.063C286.538 384.382 286.731 384.689 287.13 384.92L298.044 391.221C298.44 391.45 298.97 391.563 299.528 391.563C300.201 391.563 300.91 391.398 301.463 391.079L312.277 384.835C312.829 384.516 313.114 384.107 313.114 383.72C313.114 383.398 312.918 383.092 312.52 382.863L301.607 376.56C301.211 376.332 300.681 376.219 300.123 376.219C299.452 376.219 298.742 376.384 298.189 376.703L287.376 382.945C286.823 383.264 286.54 383.675 286.539 384.063ZM382.579 382.675C382.579 382.997 382.772 383.303 383.169 383.532L394.083 389.835C394.479 390.063 395.012 390.175 395.568 390.175C396.241 390.175 396.95 390.011 397.503 389.692L408.317 383.447C408.868 383.129 409.153 382.719 409.153 382.332C409.153 382.01 408.958 381.704 408.563 381.475L397.647 375.174C397.25 374.945 396.718 374.832 396.163 374.832C395.492 374.832 394.781 374.996 394.229 375.315L383.416 381.56C382.863 381.879 382.579 382.287 382.579 382.675ZM311.373 379.456C311.373 379.776 311.566 380.084 311.963 380.313L322.877 386.612C323.276 386.842 323.808 386.956 324.364 386.956C325.035 386.956 325.743 386.793 326.297 386.473L337.113 380.228C337.666 379.909 337.949 379.501 337.948 379.111C337.946 378.791 337.754 378.483 337.357 378.254L326.443 371.953C326.046 371.724 325.516 371.611 324.958 371.611C324.287 371.611 323.579 371.775 323.025 372.094L312.21 378.339C311.654 378.659 311.373 379.067 311.373 379.456ZM340.889 377.551C340.889 377.873 341.084 378.179 341.481 378.409L352.396 384.709C352.793 384.938 353.325 385.052 353.882 385.052C354.554 385.052 355.26 384.888 355.813 384.568L366.626 378.324C367.179 378.005 367.464 377.596 367.466 377.209C367.466 376.887 367.271 376.578 366.875 376.349L355.959 370.049C355.563 369.82 355.033 369.708 354.475 369.708C353.803 369.708 353.094 369.871 352.539 370.192L341.726 376.437C341.174 376.756 340.889 377.164 340.889 377.551ZM269.682 374.33C269.682 374.653 269.877 374.959 270.274 375.188L281.187 381.488C281.586 381.719 282.116 381.831 282.674 381.831C283.347 381.831 284.054 381.668 284.609 381.348L295.423 375.105C295.976 374.786 296.26 374.375 296.26 373.988C296.26 373.666 296.064 373.36 295.666 373.131L284.753 366.83C284.356 366.601 283.824 366.488 283.269 366.488C282.597 366.488 281.888 366.652 281.335 366.971L270.522 373.214C269.966 373.534 269.682 373.943 269.682 374.33ZM365.722 372.943C365.721 373.265 365.916 373.573 366.313 373.802L377.229 380.103C377.625 380.331 378.156 380.443 378.713 380.443C379.387 380.443 380.095 380.282 380.649 379.962L391.463 373.717C392.015 373.398 392.299 372.99 392.299 372.6C392.299 372.28 392.105 371.974 391.706 371.743L380.793 365.442C380.396 365.213 379.864 365.1 379.306 365.1C378.635 365.1 377.927 365.264 377.375 365.583L366.562 371.828C366.009 372.147 365.723 372.555 365.722 372.943ZM229.516 372.636C229.518 372.958 229.714 373.265 230.11 373.494L241.024 379.796C241.42 380.025 241.953 380.137 242.508 380.137C243.179 380.137 243.888 379.973 244.442 379.653L257.325 372.215C257.878 371.895 258.162 371.488 258.162 371.099C258.162 370.778 257.968 370.47 257.571 370.241L246.657 363.94C246.259 363.71 245.729 363.598 245.173 363.598C244.499 363.598 243.793 363.761 243.238 364.081L230.354 371.519C229.8 371.839 229.515 372.249 229.516 372.636ZM294.518 369.724C294.518 370.047 294.713 370.352 295.109 370.581L306.023 376.884C306.419 377.113 306.95 377.224 307.507 377.224C308.179 377.224 308.888 377.06 309.441 376.741L320.256 370.496C320.81 370.177 321.093 369.769 321.093 369.381C321.093 369.059 320.9 368.751 320.503 368.522L309.589 362.222C309.191 361.992 308.66 361.881 308.104 361.881C307.433 361.881 306.723 362.043 306.169 362.363L295.353 368.609C294.801 368.929 294.518 369.337 294.518 369.724ZM324.034 367.819C324.034 368.142 324.228 368.449 324.625 368.679L335.539 374.977C335.938 375.207 336.47 375.32 337.028 375.32C337.699 375.32 338.407 375.158 338.959 374.839L349.772 368.593C350.325 368.274 350.61 367.864 350.61 367.477C350.61 367.156 350.416 366.85 350.018 366.62L339.102 360.317C338.706 360.088 338.176 359.976 337.621 359.976C336.947 359.976 336.238 360.14 335.684 360.46L324.871 366.705C324.319 367.025 324.034 367.432 324.034 367.819ZM252.828 364.601C252.828 364.921 253.023 365.227 253.42 365.456L264.333 371.759C264.728 371.987 265.262 372.101 265.819 372.101C266.491 372.101 267.2 371.935 267.753 371.616L278.566 365.373C279.12 365.053 279.403 364.645 279.403 364.256C279.403 363.936 279.209 363.628 278.812 363.398L267.899 357.098C267.501 356.869 266.97 356.757 266.415 356.757C265.743 356.757 265.032 356.919 264.478 357.239L253.666 363.482C253.111 363.802 252.828 364.211 252.828 364.601ZM348.868 363.213C348.868 363.533 349.062 363.841 349.459 364.071L360.373 370.371C360.772 370.601 361.302 370.713 361.859 370.713C362.531 370.713 363.24 370.55 363.795 370.23L374.609 363.987C375.162 363.668 375.443 363.258 375.443 362.871C375.443 362.548 375.248 362.24 374.852 362.011L363.939 355.712C363.54 355.482 363.01 355.37 362.452 355.37C361.781 355.37 361.073 355.533 360.521 355.852L349.708 362.096C349.152 362.417 348.868 362.824 348.868 363.213ZM212.662 362.906C212.662 363.227 212.858 363.532 213.256 363.761L224.17 370.064C224.565 370.293 225.096 370.404 225.653 370.404C226.325 370.404 227.034 370.24 227.587 369.921L240.471 362.483C241.023 362.164 241.308 361.756 241.308 361.369C241.308 361.046 241.113 360.74 240.715 360.509L229.801 354.211C229.404 353.982 228.872 353.868 228.315 353.868C227.644 353.868 226.935 354.03 226.383 354.349L213.5 361.79C212.947 362.109 212.662 362.517 212.662 362.906ZM277.662 359.992C277.662 360.314 277.856 360.621 278.255 360.852L289.169 367.152C289.565 367.381 290.096 367.493 290.653 367.493C291.324 367.493 292.035 367.33 292.587 367.011L303.402 360.767C303.956 360.447 304.239 360.037 304.239 359.65C304.239 359.33 304.044 359.022 303.646 358.792L292.732 352.49C292.336 352.261 291.806 352.149 291.248 352.149C290.576 352.149 289.869 352.312 289.314 352.633L278.499 358.877C277.947 359.196 277.662 359.605 277.662 359.992ZM306.759 357.846C306.759 358.168 306.954 358.475 307.353 358.705L318.266 365.006C318.663 365.235 319.193 365.346 319.75 365.346C320.422 365.346 321.132 365.183 321.684 364.865L332.499 358.622C333.054 358.303 333.335 357.893 333.337 357.503C333.338 357.183 333.141 356.878 332.743 356.648L321.832 350.345C321.434 350.115 320.9 350.003 320.346 350.003C319.672 350.003 318.965 350.168 318.41 350.488L307.596 356.731C307.044 357.049 306.759 357.459 306.759 357.846ZM214.422 342.426C214.422 342.748 214.617 343.054 215.015 343.283L247.156 361.841C247.555 362.071 248.087 362.183 248.645 362.183C249.316 362.183 250.025 362.022 250.579 361.702L261.392 355.458C261.945 355.138 262.228 354.728 262.227 354.34C262.225 354.018 262.032 353.712 261.636 353.483L229.494 334.925C229.096 334.695 228.565 334.583 228.01 334.583C227.336 334.583 226.629 334.747 226.074 335.067L215.259 341.309C214.705 341.628 214.422 342.039 214.422 342.426ZM332.014 353.481C332.014 353.803 332.209 354.11 332.604 354.338L343.519 360.641C343.915 360.87 344.448 360.981 345.005 360.981C345.676 360.981 346.385 360.817 346.939 360.498L357.752 354.255C358.307 353.935 358.589 353.526 358.589 353.139C358.589 352.818 358.394 352.51 357.998 352.281L347.084 345.981C346.685 345.75 346.155 345.638 345.598 345.638C344.927 345.638 344.22 345.803 343.664 346.124L332.851 352.366C332.299 352.685 332.014 353.094 332.014 353.481ZM195.808 353.174C195.808 353.497 196.003 353.803 196.399 354.032L207.313 360.332C207.711 360.562 208.242 360.675 208.797 360.675C209.471 360.675 210.179 360.511 210.733 360.191L223.616 352.752C224.169 352.432 224.453 352.024 224.451 351.637C224.45 351.315 224.257 351.008 223.861 350.779L212.946 344.479C212.548 344.248 212.018 344.136 211.461 344.136C210.789 344.136 210.082 344.3 209.529 344.62L196.645 352.057C196.092 352.377 195.808 352.785 195.808 353.174ZM260.557 350.116C260.557 350.437 260.751 350.745 261.148 350.974L272.062 357.275C272.46 357.505 272.99 357.617 273.548 357.617C274.219 357.617 274.925 357.452 275.479 357.132L286.295 350.889C286.849 350.57 287.132 350.161 287.132 349.774C287.132 349.452 286.937 349.146 286.541 348.917L275.627 342.614C275.232 342.385 274.698 342.274 274.143 342.274C273.472 342.274 272.762 342.438 272.209 342.757L261.394 349C260.839 349.32 260.557 349.729 260.557 350.116ZM289.485 347.874C289.485 348.194 289.68 348.503 290.077 348.732L300.991 355.032C301.389 355.261 301.92 355.375 302.476 355.375C303.149 355.375 303.855 355.211 304.41 354.891L315.225 348.647C315.778 348.327 316.061 347.919 316.061 347.532C316.061 347.209 315.867 346.903 315.471 346.674L304.557 340.372C304.159 340.142 303.628 340.031 303.073 340.031C302.399 340.031 301.692 340.194 301.137 340.515L290.322 346.757C289.768 347.076 289.483 347.487 289.485 347.874ZM354.081 346.31C354.081 346.63 354.275 346.935 354.672 347.164L365.586 353.468C365.983 353.698 366.514 353.81 367.071 353.81C367.743 353.81 368.45 353.645 369.005 353.325L372.58 351.261C373.134 350.941 373.418 350.533 373.418 350.146C373.418 349.824 373.223 349.517 372.826 349.288L361.913 342.986C361.515 342.756 360.984 342.646 360.429 342.646C359.757 342.646 359.047 342.809 358.492 343.129L354.918 345.193C354.363 345.513 354.081 345.922 354.081 346.31ZM315.16 343.751C315.158 344.071 315.353 344.379 315.75 344.609L326.665 350.909C327.061 351.137 327.594 351.251 328.148 351.251C328.822 351.251 329.532 351.087 330.085 350.768L340.898 344.525C341.451 344.206 341.735 343.796 341.735 343.409C341.735 343.087 341.538 342.782 341.141 342.552L330.228 336.248C329.832 336.02 329.301 335.906 328.744 335.906C328.072 335.906 327.363 336.073 326.81 336.392L315.997 342.634C315.443 342.954 315.161 343.362 315.16 343.751ZM230.83 332.954C230.83 333.276 231.023 333.583 231.422 333.813L254.928 347.382C255.325 347.611 255.857 347.724 256.414 347.724C257.085 347.724 257.794 347.562 258.345 347.243L269.161 340.998C269.715 340.678 269.998 340.268 269.998 339.881C269.998 339.561 269.803 339.253 269.407 339.024L245.901 325.451C245.504 325.221 244.972 325.111 244.417 325.111C243.743 325.111 243.035 325.274 242.48 325.594L231.665 331.839C231.115 332.157 230.83 332.567 230.83 332.954ZM272.212 337.9C272.212 338.223 272.405 338.531 272.802 338.76L283.717 345.059C284.115 345.288 284.648 345.4 285.205 345.4C285.877 345.4 286.585 345.238 287.137 344.92L297.952 338.674C298.505 338.355 298.787 337.945 298.787 337.558C298.787 337.235 298.592 336.929 298.196 336.701L287.282 330.398C286.886 330.169 286.353 330.058 285.798 330.058C285.124 330.058 284.418 330.221 283.864 330.541L273.049 336.786C272.497 337.104 272.212 337.513 272.212 337.9ZM337.379 336.667C337.378 336.989 337.574 337.296 337.97 337.524L348.884 343.825C349.282 344.055 349.813 344.168 350.37 344.168C351.042 344.168 351.752 344.004 352.306 343.684L355.878 341.62C356.433 341.3 356.715 340.891 356.715 340.504C356.715 340.181 356.521 339.875 356.124 339.646L345.211 333.346C344.812 333.115 344.282 333.003 343.724 333.003C343.053 333.003 342.345 333.166 341.791 333.487L338.219 335.551C337.666 335.87 337.38 336.277 337.379 336.667ZM298.388 334.068C298.388 334.389 298.583 334.695 298.981 334.925L309.893 341.226C310.292 341.457 310.822 341.569 311.379 341.569C312.051 341.569 312.76 341.405 313.313 341.086L324.126 334.843C324.68 334.524 324.962 334.113 324.963 333.726C324.964 333.404 324.77 333.098 324.372 332.869L313.456 326.565C313.06 326.337 312.53 326.226 311.975 326.226C311.301 326.226 310.592 326.389 310.038 326.709L299.225 332.952C298.673 333.27 298.388 333.679 298.388 334.068ZM247.237 323.481C247.237 323.801 247.432 324.11 247.828 324.339L266.904 335.353C267.301 335.582 267.834 335.693 268.389 335.693C269.06 335.693 269.771 335.532 270.325 335.212L281.138 328.967C281.691 328.648 281.975 328.238 281.975 327.851C281.975 327.528 281.78 327.223 281.382 326.993L262.307 315.981C261.909 315.75 261.376 315.639 260.821 315.639C260.15 315.639 259.439 315.801 258.887 316.12L248.074 322.365C247.522 322.684 247.237 323.094 247.237 323.481ZM320.679 327.024C320.679 327.345 320.873 327.652 321.27 327.882L332.186 334.185C332.582 334.413 333.113 334.525 333.67 334.525C334.342 334.525 335.051 334.362 335.604 334.042L339.176 331.976C339.73 331.655 340.016 331.248 340.016 330.861C340.016 330.539 339.822 330.231 339.425 330.001L328.511 323.703C328.112 323.473 327.58 323.36 327.022 323.36C326.351 323.36 325.643 323.523 325.091 323.842L321.516 325.908C320.963 326.228 320.679 326.637 320.679 327.024ZM281.617 324.385C281.617 324.706 281.811 325.012 282.208 325.241L293.122 331.544C293.52 331.774 294.05 331.886 294.608 331.886C295.279 331.886 295.986 331.722 296.542 331.4L307.357 325.158C307.909 324.839 308.195 324.431 308.194 324.041C308.193 323.721 307.998 323.413 307.601 323.184L296.687 316.883C296.291 316.654 295.76 316.543 295.203 316.543C294.532 316.543 293.823 316.707 293.269 317.026L282.454 323.269C281.899 323.59 281.617 323.998 281.617 324.385ZM303.977 317.382C303.977 317.702 304.171 318.009 304.571 318.24L315.484 324.54C315.881 324.769 316.411 324.882 316.968 324.882C317.64 324.882 318.349 324.718 318.902 324.399L322.479 322.335C323.032 322.016 323.314 321.606 323.314 321.218C323.314 320.898 323.119 320.59 322.723 320.361L311.809 314.058C311.413 313.829 310.88 313.718 310.325 313.718C309.653 313.718 308.945 313.883 308.391 314.202L304.814 316.265C304.261 316.584 303.977 316.995 303.977 317.382ZM264.846 314.703C264.846 315.023 265.04 315.332 265.437 315.56L276.353 321.861C276.749 322.09 277.281 322.204 277.839 322.204C278.51 322.204 279.218 322.039 279.77 321.72L290.584 315.475C291.137 315.155 291.42 314.748 291.42 314.36C291.42 314.038 291.226 313.73 290.83 313.501L279.916 307.2C279.52 306.972 278.987 306.86 278.432 306.86C277.76 306.86 277.05 307.022 276.498 307.341L265.683 313.586C265.13 313.906 264.846 314.316 264.846 314.703ZM282.091 304.745C282.091 305.067 282.286 305.373 282.683 305.602L293.596 311.905C293.994 312.135 294.525 312.245 295.083 312.245C295.754 312.245 296.463 312.081 297.016 311.761L300.59 309.698C301.144 309.378 301.428 308.971 301.428 308.584C301.428 308.261 301.234 307.954 300.837 307.724L289.923 301.423C289.525 301.194 288.994 301.083 288.437 301.083C287.765 301.083 287.057 301.245 286.503 301.564L282.929 303.628C282.376 303.948 282.091 304.358 282.091 304.745ZM394.665 576.565C394.701 576.545 394.737 576.525 394.773 576.502C394.737 576.525 394.701 576.545 394.665 576.565ZM289.538 497.431C287.052 497.431 284.689 496.948 282.967 495.953L198.259 447.045C197.229 446.45 195.999 445.431 195.999 443.947C195.999 442.445 197.257 440.856 199.45 439.59L243.052 414.416C245.528 412.986 248.782 412.249 251.843 412.249C254.33 412.249 256.693 412.738 258.413 413.73L343.12 462.635C344.152 463.231 345.381 464.251 345.381 465.735C345.381 467.239 344.123 468.825 341.931 470.09L298.325 495.264C295.85 496.693 292.603 497.431 289.538 497.431ZM602.254 456.715C602.267 456.706 602.28 456.699 602.294 456.69C602.28 456.697 602.267 456.706 602.254 456.715ZM53.1163 390.621C53.1049 390.616 53.0962 390.61 53.0845 390.603C53.0962 390.61 53.1049 390.616 53.1163 390.621Z" fill="url(#paint4_radial_119_2)"/>
<path fill-rule="evenodd" clip-rule="evenodd" d="M350.09 420.757C349.535 420.757 349.005 420.645 348.606 420.414L337.692 414.114C337.296 413.883 337.102 413.576 337.102 413.257C337.104 412.867 337.386 412.457 337.94 412.139L348.754 405.897C349.307 405.577 350.016 405.413 350.69 405.413C351.245 405.413 351.776 405.526 352.172 405.753L363.086 412.057C363.484 412.285 363.679 412.592 363.679 412.914C363.679 413.301 363.394 413.711 362.841 414.031L352.028 420.273C351.473 420.591 350.764 420.757 350.09 420.757Z" fill="url(#paint5_radial_119_2)"/>
<path fill-rule="evenodd" clip-rule="evenodd" d="M605.817 439.657C604.431 439.657 602.988 439.274 601.582 438.461L289.258 257.992C285.444 255.789 283.065 251.098 283.067 246.465C283.067 245.211 283.242 243.963 283.609 242.767L353.228 16.7395C354.453 12.7559 357.494 10.45 360.892 10.45C362.277 10.45 363.724 10.8352 365.127 11.6455L677.451 192.118C681.265 194.317 683.642 199.009 683.642 203.645C683.642 204.898 683.467 206.147 683.1 207.342L613.481 433.367C612.255 437.351 609.213 439.657 605.817 439.657ZM340.56 243.184C340.567 246.355 342.198 249.563 344.808 251.069L556.235 373.135C557.199 373.69 558.191 373.954 559.143 373.954C561.473 373.954 563.558 372.375 564.4 369.639L567.545 359.425L584.802 369.389C585.765 369.946 586.756 370.208 587.707 370.208C590.037 370.208 592.125 368.627 592.965 365.895L640.779 210.652C641.963 206.803 640.228 202.127 636.904 200.206L425.477 78.1379C424.515 77.5805 423.524 77.3182 422.572 77.3182C420.242 77.3182 418.153 78.8988 417.315 81.634L414.167 91.8471L396.91 81.8846C395.948 81.3275 394.956 81.0656 394.005 81.0656C391.675 81.0656 389.586 82.6458 388.747 85.3788L340.933 240.623C340.678 241.449 340.557 242.315 340.56 243.184Z" fill="url(#paint6_linear_119_2)"/>
<path fill-rule="evenodd" clip-rule="evenodd" d="M587.707 370.208C586.756 370.208 585.765 369.946 584.802 369.389L567.545 359.426L612.214 214.399C612.467 213.574 612.588 212.707 612.586 211.839C612.579 208.667 610.949 205.46 608.337 203.954L414.167 91.8471L417.315 81.634C418.153 78.8988 420.242 77.3182 422.572 77.3182C423.524 77.3182 424.515 77.5805 425.477 78.138L636.904 200.206C640.228 202.127 641.963 206.803 640.779 210.652L592.965 365.895C592.125 368.627 590.037 370.208 587.707 370.208Z" fill="url(#paint7_linear_119_2)"/>
<path fill-rule="evenodd" clip-rule="evenodd" d="M559.143 373.954C558.191 373.954 557.199 373.69 556.235 373.135L344.808 251.069C342.198 249.563 340.567 246.355 340.56 243.184C340.557 242.315 340.678 241.449 340.933 240.623L388.747 85.3788C389.586 82.6458 391.675 81.0656 394.005 81.0656C394.956 81.0656 395.948 81.3275 396.91 81.8846L608.337 203.953C610.949 205.46 612.579 208.667 612.586 211.839C612.588 212.707 612.467 213.574 612.214 214.399L567.545 359.425L564.4 369.639C563.558 372.375 561.473 373.954 559.143 373.954Z" fill="url(#paint8_radial_119_2)"/>
<path fill-rule="evenodd" clip-rule="evenodd" d="M422.046 221.526L408.975 213.978C407.761 213.278 407.113 211.595 407.524 210.22C407.932 208.844 409.248 208.295 410.46 208.997L423.533 216.543C424.746 217.244 425.397 218.925 424.985 220.301C424.575 221.678 423.259 222.224 422.046 221.526Z" fill="url(#paint9_radial_119_2)"/>
<path d="M443.771 197.361L405.76 175.415C404.547 174.715 403.898 173.031 404.305 171.655C404.717 170.281 406.034 169.732 407.247 170.431L445.257 192.379C446.47 193.08 447.119 194.763 446.71 196.137C446.3 197.512 444.984 198.06 443.771 197.361Z" fill="#EA9A63"/>
<path d="M421.341 208.882L399.531 196.289C398.318 195.591 397.669 193.908 398.079 192.531C398.491 191.155 399.804 190.609 401.018 191.309L422.83 203.902C424.04 204.6 424.692 206.283 424.28 207.657C423.868 209.036 422.554 209.583 421.341 208.882Z" fill="#EA9A63"/>
<path d="M457.727 217.654L449.803 213.078C448.59 212.378 447.939 210.697 448.351 209.319C448.759 207.944 450.076 207.396 451.289 208.099L459.213 212.674C460.426 213.372 461.075 215.055 460.665 216.429C460.256 217.806 458.94 218.354 457.727 217.654Z" fill="#EA9A63"/>
<path d="M538.329 215.248L491.403 188.153C490.193 187.455 489.541 185.772 489.953 184.398C490.363 183.019 491.678 182.472 492.89 183.173L539.815 210.265C541.028 210.966 541.679 212.649 541.27 214.023C540.858 215.4 539.541 215.946 538.329 215.248Z" fill="#EA9A63"/>
<path d="M419.521 232.301L393.304 217.166C392.091 216.465 391.44 214.782 391.852 213.408C392.261 212.031 393.577 211.483 394.791 212.186L421.007 227.319C422.219 228.022 422.869 229.702 422.46 231.079C422.05 232.453 420.734 233.004 419.521 232.301Z" fill="#EE4899"/>
<path d="M423.474 148.934L404.2 137.806C402.987 137.107 402.336 135.424 402.748 134.05C403.157 132.674 404.474 132.125 405.687 132.825L424.96 143.952C426.173 144.655 426.825 146.335 426.413 147.712C426.003 149.087 424.687 149.635 423.474 148.934Z" fill="#EE4899"/>
<path d="M395.386 255.073L373.062 242.185C371.848 241.487 371.199 239.804 371.611 238.427C372.019 237.051 373.335 236.504 374.548 237.203L396.87 250.091C398.083 250.794 398.734 252.475 398.323 253.851C397.913 255.225 396.597 255.774 395.386 255.073Z" fill="#EA9A63"/>
<path d="M543.598 191.114L534.043 185.597C533.158 185.085 532.682 183.856 532.979 182.851C533.281 181.844 534.244 181.443 535.128 181.958L544.684 187.472C545.57 187.983 546.044 189.214 545.746 190.219C545.447 191.224 544.484 191.625 543.598 191.114Z" fill="#FEFEFE"/>
<path d="M561.822 201.637L552.269 196.119C551.38 195.606 550.906 194.378 551.206 193.37C551.505 192.365 552.466 191.967 553.354 192.478L562.909 197.995C563.794 198.505 564.27 199.736 563.968 200.741C563.668 201.749 562.708 202.147 561.822 201.637Z" fill="#FEFEFE"/>
<path d="M580.046 212.157L570.491 206.641C569.607 206.131 569.13 204.9 569.43 203.895C569.73 202.888 570.692 202.489 571.578 203L581.131 208.517C582.02 209.03 582.494 210.256 582.195 211.264C581.895 212.269 580.932 212.671 580.046 212.157Z" fill="#FEFEFE"/>
<path d="M589.003 217.336L588.717 217.163C587.828 216.651 587.353 215.422 587.654 214.417C587.954 213.412 588.916 213.011 589.802 213.522L590.088 213.696C590.977 214.207 591.449 215.436 591.152 216.441C590.852 217.446 589.889 217.849 589.003 217.336Z" fill="#EE4899"/>
<defs>
<radialGradient id="paint0_radial_119_2" cx="0" cy="0" r="1" gradientUnits="userSpaceOnUse" gradientTransform="translate(-161.662 -373.769) scale(1056.1 1064.01)">
<stop stop-color="#3B3A79"/>
<stop offset="1" stop-color="#2C2E46"/>
</radialGradient>
<linearGradient id="paint1_linear_119_2" x1="0" y1="474.061" x2="654.376" y2="474.061" gradientUnits="userSpaceOnUse">
<stop stop-color="#E49E6C"/>
<stop offset="1" stop-color="#E86590"/>
</linearGradient>
<radialGradient id="paint2_radial_119_2" cx="0" cy="0" r="1" gradientUnits="userSpaceOnUse" gradientTransform="translate(361.998 -8.95842) scale(297.728 297.728)">
<stop stop-color="#E49E6C"/>
<stop offset="0.470588" stop-color="#875DA5"/>
<stop offset="0.741176" stop-color="#645AA5"/>
<stop offset="0.8" stop-color="#39386E"/>
<stop offset="1" stop-color="#39386E"/>
</radialGradient>
<radialGradient id="paint3_radial_119_2" cx="0" cy="0" r="1" gradientUnits="userSpaceOnUse" gradientTransform="translate(55.5964 390.994) scale(325.562 325.564)">
<stop stop-color="#E49E6C"/>
<stop offset="0.470588" stop-color="#875DA5"/>
<stop offset="0.678431" stop-color="#645AA5"/>
<stop offset="0.741176" stop-color="#39386E"/>
<stop offset="1" stop-color="#39386E"/>
</radialGradient>
<radialGradient id="paint4_radial_119_2" cx="0" cy="0" r="1" gradientUnits="userSpaceOnUse" gradientTransform="translate(105.607 280.112) scale(291.947 291.947)">
<stop stop-color="#E49E6C"/>
<stop offset="0.470588" stop-color="#875DA5"/>
<stop offset="0.729412" stop-color="#645AA5"/>
<stop offset="1" stop-color="#514C9D"/>
</radialGradient>
<radialGradient id="paint5_radial_119_2" cx="0" cy="0" r="1" gradientUnits="userSpaceOnUse" gradientTransform="translate(106.173 281.281) scale(291.945 291.96)">
<stop stop-color="#5F4756"/>
<stop offset="0.470588" stop-color="#4E3C81"/>
<stop offset="0.729412" stop-color="#3F3B7F"/>
<stop offset="1" stop-color="#39366B"/>
</radialGradient>
<linearGradient id="paint6_linear_119_2" x1="283.068" y1="225.053" x2="683.642" y2="225.053" gradientUnits="userSpaceOnUse">
<stop stop-color="#39366B"/>
<stop offset="1" stop-color="#3F3B7F"/>
</linearGradient>
<linearGradient id="paint7_linear_119_2" x1="283.535" y1="225.053" x2="682.682" y2="225.053" gradientUnits="userSpaceOnUse">
<stop stop-color="#34315A"/>
<stop offset="1" stop-color="#363364"/>
</linearGradient>
<radialGradient id="paint8_radial_119_2" cx="0" cy="0" r="1" gradientUnits="userSpaceOnUse" gradientTransform="translate(46.7512 -12.6706) rotate(27.7728) scale(463.794 463.797)">
<stop stop-color="#79585A"/>
<stop offset="0.470588" stop-color="#603E94"/>
<stop offset="0.729412" stop-color="#4B3E93"/>
<stop offset="1" stop-color="#3C3B7A"/>
</radialGradient>
<radialGradient id="paint9_radial_119_2" cx="0" cy="0" r="1" gradientUnits="userSpaceOnUse" gradientTransform="translate(115.752 277.517) scale(282.771 282.755)">
<stop stop-color="#90655D"/>
<stop offset="0.470588" stop-color="#6D489A"/>
<stop offset="0.729412" stop-color="#534598"/>
<stop offset="1" stop-color="#3E3D86"/>
</radialGradient>
</defs>
</svg>
