<svg width="183" height="45" viewBox="0 0 183 45" fill="none" xmlns="http://www.w3.org/2000/svg">
<path d="M0.96 22.38C0.96 20.3 1.39 18.45 2.25 16.83C3.13 15.19 4.37 13.92 5.97 13.02C7.57 12.1 9.41 11.64 11.49 11.64C14.13 11.64 16.35 12.35 18.15 13.77C19.95 15.17 21.11 17.08 21.63 19.5H15.3C14.92 18.7 14.39 18.09 13.71 17.67C13.05 17.25 12.28 17.04 11.4 17.04C10.04 17.04 8.95 17.53 8.13 18.51C7.33 19.47 6.93 20.76 6.93 22.38C6.93 24.02 7.33 25.33 8.13 26.31C8.95 27.27 10.04 27.75 11.4 27.75C12.28 27.75 13.05 27.54 13.71 27.12C14.39 26.7 14.92 26.09 15.3 25.29H21.63C21.11 27.71 19.95 29.63 18.15 31.05C16.35 32.45 14.13 33.15 11.49 33.15C9.41 33.15 7.57 32.7 5.97 31.8C4.37 30.88 3.13 29.61 2.25 27.99C1.39 26.35 0.96 24.48 0.96 22.38ZM33.2944 29.55H25.7944L24.6544 33H18.4744L26.1844 11.85H32.9644L40.6444 33H34.4344L33.2944 29.55ZM31.8244 25.05L29.5444 18.21L27.2944 25.05H31.8244ZM43.9409 11.85V33H38.0609V11.85H43.9409ZM52.9294 33.21C50.9494 33.21 49.1294 32.75 47.4694 31.83C45.8094 30.89 44.4894 29.6 43.5094 27.96C42.5494 26.3 42.0694 24.43 42.0694 22.35C42.0694 20.27 42.5494 18.41 43.5094 16.77C44.4894 15.11 45.8094 13.82 47.4694 12.9C49.1294 11.98 50.9494 11.52 52.9294 11.52C54.9294 11.52 56.7494 11.98 58.3894 12.9C60.0494 13.82 61.3594 15.11 62.3194 16.77C63.2794 18.41 63.7594 20.27 63.7594 22.35C63.7594 24.43 63.2794 26.3 62.3194 27.96C61.3594 29.6 60.0494 30.89 58.3894 31.83C56.7294 32.75 54.9094 33.21 52.9294 33.21ZM52.9294 27.75C54.4294 27.75 55.6094 27.26 56.4694 26.28C57.3494 25.3 57.7894 23.99 57.7894 22.35C57.7894 20.67 57.3494 19.35 56.4694 18.39C55.6094 17.41 54.4294 16.92 52.9294 16.92C51.4094 16.92 50.2194 17.41 49.3594 18.39C48.4994 19.35 48.0694 20.67 48.0694 22.35C48.0694 24.01 48.4994 25.33 49.3594 26.31C50.2194 27.27 51.4094 27.75 52.9294 27.75ZM76.5248 29.55H69.0248L67.8848 33H61.7048L69.4148 11.85H76.1948L83.8748 33H77.6648L76.5248 29.55ZM75.0548 25.05L72.7748 18.21L70.5248 25.05H75.0548ZM87.0513 11.85V24.12C87.0513 25.26 87.3113 26.14 87.8313 26.76C88.3713 27.38 89.1813 27.69 90.2613 27.69C91.3413 27.69 92.1513 27.38 92.6913 26.76C93.2513 26.12 93.5313 25.24 93.5313 24.12V11.85H99.4113V24.12C99.4113 26.06 99.0013 27.72 98.1813 29.1C97.3613 30.46 96.2413 31.49 94.8213 32.19C93.4213 32.87 91.8613 33.21 90.1413 33.21C88.4213 33.21 86.8813 32.87 85.5213 32.19C84.1813 31.49 83.1213 30.46 82.3413 29.1C81.5813 27.74 81.2013 26.08 81.2013 24.12V11.85H87.0513ZM111.649 18.81C111.309 18.25 110.839 17.82 110.239 17.52C109.659 17.22 108.969 17.07 108.169 17.07C106.689 17.07 105.519 17.55 104.659 18.51C103.819 19.47 103.399 20.76 103.399 22.38C103.399 24.2 103.849 25.59 104.749 26.55C105.669 27.49 106.999 27.96 108.739 27.96C110.799 27.96 112.269 27.03 113.149 25.17H107.239V20.94H118.219V26.64C117.759 27.76 117.079 28.81 116.179 29.79C115.299 30.77 114.179 31.58 112.819 32.22C111.459 32.84 109.909 33.15 108.169 33.15C106.049 33.15 104.169 32.7 102.529 31.8C100.909 30.88 99.6488 29.61 98.7488 27.99C97.8688 26.35 97.4288 24.48 97.4288 22.38C97.4288 20.3 97.8688 18.45 98.7488 16.83C99.6488 15.19 100.909 13.92 102.529 13.02C104.149 12.1 106.019 11.64 108.139 11.64C110.799 11.64 112.999 12.28 114.739 13.56C116.479 14.84 117.559 16.59 117.979 18.81H111.649ZM122.114 11.85V24.12C122.114 25.26 122.374 26.14 122.894 26.76C123.434 27.38 124.244 27.69 125.324 27.69C126.404 27.69 127.214 27.38 127.754 26.76C128.314 26.12 128.594 25.24 128.594 24.12V11.85H134.474V24.12C134.474 26.06 134.064 27.72 133.244 29.1C132.424 30.46 131.304 31.49 129.884 32.19C128.484 32.87 126.924 33.21 125.204 33.21C123.484 33.21 121.944 32.87 120.584 32.19C119.244 31.49 118.184 30.46 117.404 29.1C116.644 27.74 116.264 26.08 116.264 24.12V11.85H122.114ZM141.191 33.21C138.731 33.21 136.711 32.63 135.131 31.47C133.551 30.29 132.701 28.61 132.581 26.43H138.851C138.911 27.17 139.131 27.71 139.511 28.05C139.891 28.39 140.381 28.56 140.981 28.56C141.521 28.56 141.961 28.43 142.301 28.17C142.661 27.89 142.841 27.51 142.841 27.03C142.841 26.41 142.551 25.93 141.971 25.59C141.391 25.25 140.451 24.87 139.151 24.45C137.771 23.99 136.651 23.55 135.791 23.13C134.951 22.69 134.211 22.06 133.571 21.24C132.951 20.4 132.641 19.31 132.641 17.97C132.641 16.61 132.981 15.45 133.661 14.49C134.341 13.51 135.281 12.77 136.481 12.27C137.681 11.77 139.041 11.52 140.561 11.52C143.021 11.52 144.981 12.1 146.441 13.26C147.921 14.4 148.711 16.01 148.811 18.09H142.421C142.401 17.45 142.201 16.97 141.821 16.65C141.461 16.33 140.991 16.17 140.411 16.17C139.971 16.17 139.611 16.3 139.331 16.56C139.051 16.82 138.911 17.19 138.911 17.67C138.911 18.07 139.061 18.42 139.361 18.72C139.681 19 140.071 19.25 140.531 19.47C140.991 19.67 141.671 19.93 142.571 20.25C143.911 20.71 145.011 21.17 145.871 21.63C146.751 22.07 147.501 22.7 148.121 23.52C148.761 24.32 149.081 25.34 149.081 26.58C149.081 27.84 148.761 28.97 148.121 29.97C147.501 30.97 146.591 31.76 145.391 32.34C144.211 32.92 142.811 33.21 141.191 33.21ZM163.245 11.85V16.53H157.605V33H151.725V16.53H146.145V11.85H163.245ZM171.06 33.21C169.08 33.21 167.26 32.75 165.6 31.83C163.94 30.89 162.62 29.6 161.64 27.96C160.68 26.3 160.2 24.43 160.2 22.35C160.2 20.27 160.68 18.41 161.64 16.77C162.62 15.11 163.94 13.82 165.6 12.9C167.26 11.98 169.08 11.52 171.06 11.52C173.06 11.52 174.88 11.98 176.52 12.9C178.18 13.82 179.49 15.11 180.45 16.77C181.41 18.41 181.89 20.27 181.89 22.35C181.89 24.43 181.41 26.3 180.45 27.96C179.49 29.6 178.18 30.89 176.52 31.83C174.86 32.75 173.04 33.21 171.06 33.21ZM171.06 27.75C172.56 27.75 173.74 27.26 174.6 26.28C175.48 25.3 175.92 23.99 175.92 22.35C175.92 20.67 175.48 19.35 174.6 18.39C173.74 17.41 172.56 16.92 171.06 16.92C169.54 16.92 168.35 17.41 167.49 18.39C166.63 19.35 166.2 20.67 166.2 22.35C166.2 24.01 166.63 25.33 167.49 26.31C168.35 27.27 169.54 27.75 171.06 27.75Z" fill="white"/>
<rect x="1" y="37" width="155" height="3" fill="#05DBF2"/>
</svg>
