<svg width="176" height="45" viewBox="0 0 176 45" fill="none" xmlns="http://www.w3.org/2000/svg">
<path d="M0.96 22.38C0.96 20.3 1.39 18.45 2.25 16.83C3.13 15.19 4.37 13.92 5.97 13.02C7.57 12.1 9.41 11.64 11.49 11.64C14.13 11.64 16.35 12.35 18.15 13.77C19.95 15.17 21.11 17.08 21.63 19.5H15.3C14.92 18.7 14.39 18.09 13.71 17.67C13.05 17.25 12.28 17.04 11.4 17.04C10.04 17.04 8.95 17.53 8.13 18.51C7.33 19.47 6.93 20.76 6.93 22.38C6.93 24.02 7.33 25.33 8.13 26.31C8.95 27.27 10.04 27.75 11.4 27.75C12.28 27.75 13.05 27.54 13.71 27.12C14.39 26.7 14.92 26.09 15.3 25.29H21.63C21.11 27.71 19.95 29.63 18.15 31.05C16.35 32.45 14.13 33.15 11.49 33.15C9.41 33.15 7.57 32.7 5.97 31.8C4.37 30.88 3.13 29.61 2.25 27.99C1.39 26.35 0.96 24.48 0.96 22.38ZM32.6944 29.55H25.1944L24.0544 33H17.8744L25.5844 11.85H32.3644L40.0444 33H33.8344L32.6944 29.55ZM31.2244 25.05L28.9444 18.21L26.6944 25.05H31.2244ZM42.7409 11.85V33H36.8609V11.85H42.7409ZM51.1294 33.21C49.1494 33.21 47.3294 32.75 45.6694 31.83C44.0094 30.89 42.6894 29.6 41.7094 27.96C40.7494 26.3 40.2694 24.43 40.2694 22.35C40.2694 20.27 40.7494 18.41 41.7094 16.77C42.6894 15.11 44.0094 13.82 45.6694 12.9C47.3294 11.98 49.1494 11.52 51.1294 11.52C53.1294 11.52 54.9494 11.98 56.5894 12.9C58.2494 13.82 59.5594 15.11 60.5194 16.77C61.4794 18.41 61.9594 20.27 61.9594 22.35C61.9594 24.43 61.4794 26.3 60.5194 27.96C59.5594 29.6 58.2494 30.89 56.5894 31.83C54.9294 32.75 53.1094 33.21 51.1294 33.21ZM51.1294 27.75C52.6294 27.75 53.8094 27.26 54.6694 26.28C55.5494 25.3 55.9894 23.99 55.9894 22.35C55.9894 20.67 55.5494 19.35 54.6694 18.39C53.8094 17.41 52.6294 16.92 51.1294 16.92C49.6094 16.92 48.4194 17.41 47.5594 18.39C46.6994 19.35 46.2694 20.67 46.2694 22.35C46.2694 24.01 46.6994 25.33 47.5594 26.31C48.4194 27.27 49.6094 27.75 51.1294 27.75Z" fill="white"/>
<path d="M72.8827 29.55H65.3827L64.2427 33H58.0627L65.7727 11.85H72.5527L80.2327 33H74.0227L72.8827 29.55ZM71.4127 25.05L69.1327 18.21L66.8827 25.05H71.4127ZM82.8091 11.85V24.12C82.8091 25.26 83.0691 26.14 83.5891 26.76C84.1291 27.38 84.9391 27.69 86.0191 27.69C87.0991 27.69 87.9091 27.38 88.4491 26.76C89.0091 26.12 89.2891 25.24 89.2891 24.12V11.85H95.1691V24.12C95.1691 26.06 94.7591 27.72 93.9391 29.1C93.1191 30.46 91.9991 31.49 90.5791 32.19C89.1791 32.87 87.6191 33.21 85.8991 33.21C84.1791 33.21 82.6391 32.87 81.2791 32.19C79.9391 31.49 78.8791 30.46 78.0991 29.1C77.3391 27.74 76.9591 26.08 76.9591 24.12V11.85H82.8091ZM106.807 18.81C106.467 18.25 105.997 17.82 105.397 17.52C104.817 17.22 104.127 17.07 103.327 17.07C101.847 17.07 100.677 17.55 99.8166 18.51C98.9766 19.47 98.5566 20.76 98.5566 22.38C98.5566 24.2 99.0066 25.59 99.9066 26.55C100.827 27.49 102.157 27.96 103.897 27.96C105.957 27.96 107.427 27.03 108.307 25.17H102.397V20.94H113.377V26.64C112.917 27.76 112.237 28.81 111.337 29.79C110.457 30.77 109.337 31.58 107.977 32.22C106.617 32.84 105.067 33.15 103.327 33.15C101.207 33.15 99.3266 32.7 97.6866 31.8C96.0666 30.88 94.8066 29.61 93.9066 27.99C93.0266 26.35 92.5866 24.48 92.5866 22.38C92.5866 20.3 93.0266 18.45 93.9066 16.83C94.8066 15.19 96.0666 13.92 97.6866 13.02C99.3066 12.1 101.177 11.64 103.297 11.64C105.957 11.64 108.157 12.28 109.897 13.56C111.637 14.84 112.717 16.59 113.137 18.81H106.807ZM116.672 11.85V24.12C116.672 25.26 116.932 26.14 117.452 26.76C117.992 27.38 118.802 27.69 119.882 27.69C120.962 27.69 121.772 27.38 122.312 26.76C122.872 26.12 123.152 25.24 123.152 24.12V11.85H129.032V24.12C129.032 26.06 128.622 27.72 127.802 29.1C126.982 30.46 125.862 31.49 124.442 32.19C123.042 32.87 121.482 33.21 119.762 33.21C118.042 33.21 116.502 32.87 115.142 32.19C113.802 31.49 112.742 30.46 111.962 29.1C111.202 27.74 110.822 26.08 110.822 24.12V11.85H116.672ZM135.149 33.21C132.689 33.21 130.669 32.63 129.089 31.47C127.509 30.29 126.659 28.61 126.539 26.43H132.809C132.869 27.17 133.089 27.71 133.469 28.05C133.849 28.39 134.339 28.56 134.939 28.56C135.479 28.56 135.919 28.43 136.259 28.17C136.619 27.89 136.799 27.51 136.799 27.03C136.799 26.41 136.509 25.93 135.929 25.59C135.349 25.25 134.409 24.87 133.109 24.45C131.729 23.99 130.609 23.55 129.749 23.13C128.909 22.69 128.169 22.06 127.529 21.24C126.909 20.4 126.599 19.31 126.599 17.97C126.599 16.61 126.939 15.45 127.619 14.49C128.299 13.51 129.239 12.77 130.439 12.27C131.639 11.77 132.999 11.52 134.519 11.52C136.979 11.52 138.939 12.1 140.399 13.26C141.879 14.4 142.669 16.01 142.769 18.09H136.379C136.359 17.45 136.159 16.97 135.779 16.65C135.419 16.33 134.949 16.17 134.369 16.17C133.929 16.17 133.569 16.3 133.289 16.56C133.009 16.82 132.869 17.19 132.869 17.67C132.869 18.07 133.019 18.42 133.319 18.72C133.639 19 134.029 19.25 134.489 19.47C134.949 19.67 135.629 19.93 136.529 20.25C137.869 20.71 138.969 21.17 139.829 21.63C140.709 22.07 141.459 22.7 142.079 23.52C142.719 24.32 143.039 25.34 143.039 26.58C143.039 27.84 142.719 28.97 142.079 29.97C141.459 30.97 140.549 31.76 139.349 32.34C138.169 32.92 136.769 33.21 135.149 33.21ZM156.603 11.85V16.53H150.963V33H145.083V16.53H139.503V11.85H156.603ZM163.818 33.21C161.838 33.21 160.018 32.75 158.358 31.83C156.698 30.89 155.378 29.6 154.398 27.96C153.438 26.3 152.958 24.43 152.958 22.35C152.958 20.27 153.438 18.41 154.398 16.77C155.378 15.11 156.698 13.82 158.358 12.9C160.018 11.98 161.838 11.52 163.818 11.52C165.818 11.52 167.638 11.98 169.278 12.9C170.938 13.82 172.248 15.11 173.208 16.77C174.168 18.41 174.648 20.27 174.648 22.35C174.648 24.43 174.168 26.3 173.208 27.96C172.248 29.6 170.938 30.89 169.278 31.83C167.618 32.75 165.798 33.21 163.818 33.21ZM163.818 27.75C165.318 27.75 166.498 27.26 167.358 26.28C168.238 25.3 168.678 23.99 168.678 22.35C168.678 20.67 168.238 19.35 167.358 18.39C166.498 17.41 165.318 16.92 163.818 16.92C162.298 16.92 161.108 17.41 160.248 18.39C159.388 19.35 158.958 20.67 158.958 22.35C158.958 24.01 159.388 25.33 160.248 26.31C161.108 27.27 162.298 27.75 163.818 27.75Z" fill="#DC9871"/>
</svg>
