<svg width="175" height="23" viewBox="0 0 175 23" fill="none" xmlns="http://www.w3.org/2000/svg">
<path d="M0.96 11.38C0.96 9.3 1.39 7.45 2.25 5.83C3.13 4.19 4.37 2.92 5.97 2.02C7.57 1.1 9.41 0.64 11.49 0.64C14.13 0.64 16.35 1.35 18.15 2.77C19.95 4.17 21.11 6.08 21.63 8.5H15.3C14.92 7.7 14.39 7.09 13.71 6.67C13.05 6.25 12.28 6.04 11.4 6.04C10.04 6.04 8.95 6.53 8.13 7.51C7.33 8.47 6.93 9.76 6.93 11.38C6.93 13.02 7.33 14.33 8.13 15.31C8.95 16.27 10.04 16.75 11.4 16.75C12.28 16.75 13.05 16.54 13.71 16.12C14.39 15.7 14.92 15.09 15.3 14.29H21.63C21.11 16.71 19.95 18.63 18.15 20.05C16.35 21.45 14.13 22.15 11.49 22.15C9.41 22.15 7.57 21.7 5.97 20.8C4.37 19.88 3.13 18.61 2.25 16.99C1.39 15.35 0.96 13.48 0.96 11.38ZM32.6944 18.55H25.1944L24.0544 22H17.8744L25.5844 0.849999H32.3644L40.0444 22H33.8344L32.6944 18.55ZM31.2244 14.05L28.9444 7.21L26.6944 14.05H31.2244ZM42.7409 0.849999V22H36.8609V0.849999H42.7409ZM51.1294 22.21C49.1494 22.21 47.3294 21.75 45.6694 20.83C44.0094 19.89 42.6894 18.6 41.7094 16.96C40.7494 15.3 40.2694 13.43 40.2694 11.35C40.2694 9.27 40.7494 7.41 41.7094 5.77C42.6894 4.11 44.0094 2.82 45.6694 1.9C47.3294 0.979999 49.1494 0.519999 51.1294 0.519999C53.1294 0.519999 54.9494 0.979999 56.5894 1.9C58.2494 2.82 59.5594 4.11 60.5194 5.77C61.4794 7.41 61.9594 9.27 61.9594 11.35C61.9594 13.43 61.4794 15.3 60.5194 16.96C59.5594 18.6 58.2494 19.89 56.5894 20.83C54.9294 21.75 53.1094 22.21 51.1294 22.21ZM51.1294 16.75C52.6294 16.75 53.8094 16.26 54.6694 15.28C55.5494 14.3 55.9894 12.99 55.9894 11.35C55.9894 9.67 55.5494 8.35 54.6694 7.39C53.8094 6.41 52.6294 5.92 51.1294 5.92C49.6094 5.92 48.4194 6.41 47.5594 7.39C46.6994 8.35 46.2694 9.67 46.2694 11.35C46.2694 13.01 46.6994 14.33 47.5594 15.31C48.4194 16.27 49.6094 16.75 51.1294 16.75Z" fill="white"/>
<path d="M72.8827 18.55H65.3827L64.2427 22H58.0627L65.7727 0.849999H72.5527L80.2327 22H74.0227L72.8827 18.55ZM71.4127 14.05L69.1327 7.21L66.8827 14.05H71.4127ZM82.8091 0.849999V13.12C82.8091 14.26 83.0691 15.14 83.5891 15.76C84.1291 16.38 84.9391 16.69 86.0191 16.69C87.0991 16.69 87.9091 16.38 88.4491 15.76C89.0091 15.12 89.2891 14.24 89.2891 13.12V0.849999H95.1691V13.12C95.1691 15.06 94.7591 16.72 93.9391 18.1C93.1191 19.46 91.9991 20.49 90.5791 21.19C89.1791 21.87 87.6191 22.21 85.8991 22.21C84.1791 22.21 82.6391 21.87 81.2791 21.19C79.9391 20.49 78.8791 19.46 78.0991 18.1C77.3391 16.74 76.9591 15.08 76.9591 13.12V0.849999H82.8091ZM106.807 7.81C106.467 7.25 105.997 6.82 105.397 6.52C104.817 6.22 104.127 6.07 103.327 6.07C101.847 6.07 100.677 6.55 99.8166 7.51C98.9766 8.47 98.5566 9.76 98.5566 11.38C98.5566 13.2 99.0066 14.59 99.9066 15.55C100.827 16.49 102.157 16.96 103.897 16.96C105.957 16.96 107.427 16.03 108.307 14.17H102.397V9.94H113.377V15.64C112.917 16.76 112.237 17.81 111.337 18.79C110.457 19.77 109.337 20.58 107.977 21.22C106.617 21.84 105.067 22.15 103.327 22.15C101.207 22.15 99.3266 21.7 97.6866 20.8C96.0666 19.88 94.8066 18.61 93.9066 16.99C93.0266 15.35 92.5866 13.48 92.5866 11.38C92.5866 9.3 93.0266 7.45 93.9066 5.83C94.8066 4.19 96.0666 2.92 97.6866 2.02C99.3066 1.1 101.177 0.64 103.297 0.64C105.957 0.64 108.157 1.28 109.897 2.56C111.637 3.84 112.717 5.59 113.137 7.81H106.807ZM116.672 0.849999V13.12C116.672 14.26 116.932 15.14 117.452 15.76C117.992 16.38 118.802 16.69 119.882 16.69C120.962 16.69 121.772 16.38 122.312 15.76C122.872 15.12 123.152 14.24 123.152 13.12V0.849999H129.032V13.12C129.032 15.06 128.622 16.72 127.802 18.1C126.982 19.46 125.862 20.49 124.442 21.19C123.042 21.87 121.482 22.21 119.762 22.21C118.042 22.21 116.502 21.87 115.142 21.19C113.802 20.49 112.742 19.46 111.962 18.1C111.202 16.74 110.822 15.08 110.822 13.12V0.849999H116.672ZM135.149 22.21C132.689 22.21 130.669 21.63 129.089 20.47C127.509 19.29 126.659 17.61 126.539 15.43H132.809C132.869 16.17 133.089 16.71 133.469 17.05C133.849 17.39 134.339 17.56 134.939 17.56C135.479 17.56 135.919 17.43 136.259 17.17C136.619 16.89 136.799 16.51 136.799 16.03C136.799 15.41 136.509 14.93 135.929 14.59C135.349 14.25 134.409 13.87 133.109 13.45C131.729 12.99 130.609 12.55 129.749 12.13C128.909 11.69 128.169 11.06 127.529 10.24C126.909 9.4 126.599 8.31 126.599 6.97C126.599 5.61 126.939 4.45 127.619 3.49C128.299 2.51 129.239 1.77 130.439 1.27C131.639 0.769999 132.999 0.519999 134.519 0.519999C136.979 0.519999 138.939 1.1 140.399 2.26C141.879 3.4 142.669 5.01 142.769 7.09H136.379C136.359 6.45 136.159 5.97 135.779 5.65C135.419 5.33 134.949 5.17 134.369 5.17C133.929 5.17 133.569 5.3 133.289 5.56C133.009 5.82 132.869 6.19 132.869 6.67C132.869 7.07 133.019 7.42 133.319 7.72C133.639 8 134.029 8.25 134.489 8.47C134.949 8.67 135.629 8.93 136.529 9.25C137.869 9.71 138.969 10.17 139.829 10.63C140.709 11.07 141.459 11.7 142.079 12.52C142.719 13.32 143.039 14.34 143.039 15.58C143.039 16.84 142.719 17.97 142.079 18.97C141.459 19.97 140.549 20.76 139.349 21.34C138.169 21.92 136.769 22.21 135.149 22.21ZM156.603 0.849999V5.53H150.963V22H145.083V5.53H139.503V0.849999H156.603ZM163.818 22.21C161.838 22.21 160.018 21.75 158.358 20.83C156.698 19.89 155.378 18.6 154.398 16.96C153.438 15.3 152.958 13.43 152.958 11.35C152.958 9.27 153.438 7.41 154.398 5.77C155.378 4.11 156.698 2.82 158.358 1.9C160.018 0.979999 161.838 0.519999 163.818 0.519999C165.818 0.519999 167.638 0.979999 169.278 1.9C170.938 2.82 172.248 4.11 173.208 5.77C174.168 7.41 174.648 9.27 174.648 11.35C174.648 13.43 174.168 15.3 173.208 16.96C172.248 18.6 170.938 19.89 169.278 20.83C167.618 21.75 165.798 22.21 163.818 22.21ZM163.818 16.75C165.318 16.75 166.498 16.26 167.358 15.28C168.238 14.3 168.678 12.99 168.678 11.35C168.678 9.67 168.238 8.35 167.358 7.39C166.498 6.41 165.318 5.92 163.818 5.92C162.298 5.92 161.108 6.41 160.248 7.39C159.388 8.35 158.958 9.67 158.958 11.35C158.958 13.01 159.388 14.33 160.248 15.31C161.108 16.27 162.298 16.75 163.818 16.75Z" fill="#F22F7B"/>
</svg>
