<svg width="30" height="30" viewBox="0 0 30 30" fill="none" xmlns="http://www.w3.org/2000/svg">
<g clip-path="url(#clip0_181_162)">
<path d="M22.1985 17.2384C22.14 17.2104 19.9529 16.1334 19.5643 15.9935C19.4056 15.9365 19.2357 15.8809 19.0549 15.8809C18.7596 15.8809 18.5115 16.0281 18.3182 16.3172C18.0998 16.6419 17.4384 17.415 17.234 17.646C17.2073 17.6764 17.1709 17.7129 17.1491 17.7129C17.1295 17.7129 16.791 17.5735 16.6886 17.529C14.3424 16.5099 12.5616 14.0591 12.3174 13.6458C12.2826 13.5864 12.2811 13.5594 12.2808 13.5594C12.2894 13.528 12.3683 13.4489 12.409 13.4081C12.5281 13.2902 12.6572 13.1348 12.7821 12.9846C12.8412 12.9134 12.9004 12.8421 12.9585 12.7748C13.1397 12.5641 13.2204 12.4004 13.3139 12.2109L13.3629 12.1124C13.5912 11.6588 13.3962 11.276 13.3332 11.1524C13.2814 11.049 12.358 8.82021 12.2598 8.58605C12.0237 8.02102 11.7117 7.75793 11.2782 7.75793C11.2379 7.75793 11.2782 7.75793 11.1095 7.76504C10.904 7.77371 9.78537 7.92099 9.29076 8.23277C8.76624 8.56345 7.87891 9.61755 7.87891 11.4713C7.87891 13.1397 8.93767 14.715 9.39225 15.3141C9.40355 15.3292 9.4243 15.3599 9.45439 15.4039C11.1953 17.9463 13.3655 19.8305 15.5655 20.7094C17.6835 21.5554 18.6865 21.6532 19.2567 21.6532C19.2568 21.6532 19.2568 21.6532 19.2568 21.6532C19.4964 21.6532 19.6882 21.6344 19.8574 21.6177L19.9647 21.6075C20.6964 21.5426 22.3043 20.7095 22.6701 19.6931C22.9582 18.8925 23.0342 18.0178 22.8425 17.7004C22.7112 17.4846 22.4849 17.376 22.1985 17.2384Z" fill="white"/>
<path d="M15.2665 0C7.14159 0 0.531455 6.56045 0.531455 14.6243C0.531455 17.2325 1.22944 19.7855 2.55168 22.0199L0.0208709 29.4853C-0.026272 29.6245 0.00879294 29.7784 0.111747 29.8832C0.186066 29.9591 0.286877 30 0.389832 30C0.42928 30 0.46902 29.9941 0.507786 29.9817L8.2922 27.508C10.4224 28.6462 12.83 29.247 15.2666 29.247C23.3908 29.2471 30.0002 22.6873 30.0002 14.6243C30.0002 6.56045 23.3908 0 15.2665 0ZM15.2665 26.2007C12.9738 26.2007 10.7531 25.5387 8.84418 24.2861C8.77999 24.2439 8.70548 24.2223 8.63048 24.2223C8.59084 24.2223 8.5511 24.2283 8.51243 24.2406L4.61292 25.4801L5.87175 21.7663C5.91246 21.6461 5.89211 21.5135 5.81711 21.411C4.36347 19.4248 3.59506 17.0781 3.59506 14.6243C3.59506 8.24026 8.83084 3.04636 15.2664 3.04636C21.7012 3.04636 26.9364 8.24026 26.9364 14.6243C26.9365 21.0076 21.7014 26.2007 15.2665 26.2007Z" fill="white"/>
</g>
<defs>
<clipPath id="clip0_181_162">
<rect width="30" height="30" fill="white"/>
</clipPath>
</defs>
</svg>
